<?xml version="1.0" standalone="no"?>
<!DOCTYPE svg PUBLIC "-//W3C//DTD SVG 20010904//EN"
 "http://www.w3.org/TR/2001/REC-SVG-20010904/DTD/svg10.dtd">
<svg version="1.0" xmlns="http://www.w3.org/2000/svg"
 width="480.000000pt" height="480.000000pt" viewBox="0 0 480.000000 480.000000"
 preserveAspectRatio="xMidYMid meet">

<g transform="translate(0.000000,480.000000) scale(0.100000,-0.100000)"
fill="#000000" stroke="none">
<path d="M2085 4764 c-152 -20 -286 -51 -430 -99 -371 -122 -673 -309 -955
-594 -352 -355 -576 -797 -655 -1291 -10 -62 -19 -193 -22 -320 -11 -438 63
-771 251 -1145 254 -501 690 -910 1196 -1118 251 -103 498 -159 782 -177 480
-31 970 85 1368 323 543 325 929 838 1084 1439 71 277 96 534 77 783 -48 613
-283 1123 -708 1535 -204 198 -352 306 -588 425 -263 134 -531 213 -820 245
-126 14 -460 10 -580 -6z m520 -24 c680 -63 1293 -410 1698 -959 60 -81 161
-245 157 -257 -1 -4 3 -10 8 -13 29 -18 131 -260 183 -432 79 -264 103 -445
96 -734 -5 -222 -20 -340 -63 -515 -164 -656 -614 -1221 -1219 -1530 -533
-273 -1189 -329 -1760 -150 -375 117 -713 325 -985 607 -140 145 -180 194
-278 343 -141 213 -262 483 -322 719 -49 199 -64 326 -64 571 -1 180 4 262 18
350 95 602 408 1140 881 1509 465 364 1071 544 1650 491z"/>
<path d="M2150 4195 c-285 -39 -560 -145 -790 -304 -84 -57 -239 -190 -293
-249 -23 -25 -49 -53 -58 -62 -32 -34 -146 -188 -180 -245 -129 -213 -217
-457 -254 -703 -19 -124 -19 -396 0 -528 33 -234 143 -543 249 -697 14 -21 26
-40 26 -43 0 -10 86 -120 163 -211 160 -186 344 -328 577 -443 164 -81 350
-140 545 -171 102 -17 436 -17 535 -1 408 68 745 238 1025 517 141 141 209
226 297 376 374 634 331 1441 -109 2036 -44 60 -89 112 -183 214 -30 32 -208
177 -266 216 -234 159 -495 258 -782 297 -135 19 -369 19 -502 1z m581 -54
c249 -49 518 -163 709 -299 174 -124 357 -315 472 -492 383 -588 390 -1342 20
-1938 -137 -220 -336 -422 -558 -565 -182 -118 -441 -219 -662 -259 -141 -25
-438 -30 -567 -9 -556 89 -1023 404 -1301 878 -102 173 -173 362 -216 573 -20
99 -23 145 -23 335 0 168 4 242 18 312 69 361 229 678 472 932 294 307 657
489 1095 551 113 15 421 5 541 -19z"/>
<path d="M2989 3596 c-96 -34 -193 -147 -253 -296 -74 -181 -75 -442 -4 -620
75 -186 190 -301 320 -316 126 -15 345 73 533 214 l90 67 3 107 3 107 -33 6
c-18 3 -88 14 -155 24 l-123 18 -25 -43 c-37 -64 -79 -89 -145 -89 -66 0 -109
26 -135 81 -43 91 -24 237 40 301 27 27 40 33 77 33 51 0 118 -39 155 -88 l22
-29 158 31 158 32 3 88 c3 108 5 106 -156 213 -216 145 -411 203 -533 159z"/>
<path d="M1471 3584 c-232 -62 -394 -290 -408 -575 -9 -172 26 -306 114 -441
55 -84 117 -138 212 -186 73 -36 78 -37 185 -37 107 0 114 1 186 36 94 45 156
100 218 192 72 109 104 214 110 364 5 149 -12 239 -68 351 -119 236 -336 353
-549 296z m152 -428 c80 -33 130 -142 108 -234 -26 -102 -88 -158 -167 -149
-87 9 -144 85 -144 190 0 92 39 164 105 193 39 17 58 17 98 0z"/>
<path d="M2323 3393 c-18 -9 -35 -24 -38 -32 -2 -9 -11 -146 -19 -306 -22
-416 -41 -472 -202 -591 -80 -59 -94 -77 -94 -122 0 -28 -4 -31 -82 -55 -100
-31 -246 -101 -331 -158 -80 -55 -203 -180 -245 -250 -61 -104 -76 -161 -77
-289 0 -134 14 -187 78 -295 128 -218 408 -385 777 -462 133 -28 508 -25 646
5 375 81 658 263 777 497 92 182 77 391 -39 566 -46 70 -152 176 -226 227 -81
56 -221 122 -335 159 -92 29 -113 40 -113 55 0 36 -30 77 -84 113 -69 46 -132
114 -157 171 -34 75 -48 180 -59 440 -13 318 -11 308 -64 328 -51 20 -72 19
-113 -1z m-286 -1219 c13 -18 34 -34 46 -37 12 -2 84 -18 159 -35 l138 -31
112 24 c225 48 210 42 245 88 17 23 37 54 44 70 15 32 22 33 113 6 153 -45
331 -145 444 -251 181 -168 244 -374 177 -575 -31 -90 -73 -166 -87 -156 -7 4
-8 1 -3 -6 10 -16 -128 -152 -206 -204 -148 -97 -345 -172 -536 -204 -150 -25
-429 -24 -573 1 -365 64 -672 254 -788 486 -84 169 -83 315 5 482 97 184 347
364 603 433 l45 12 19 -36 c10 -20 30 -50 43 -67z"/>
<path d="M1610 1503 c0 -27 37 -93 74 -131 43 -46 136 -89 230 -107 319 -60
763 -40 1035 47 109 34 251 96 251 109 0 12 6 13 -89 -16 -495 -148 -1087
-164 -1349 -38 -65 32 -132 94 -132 122 0 11 -4 23 -10 26 -5 3 -10 -2 -10
-12z"/>
<path d="M2259 293 c-13 -16 -12 -17 4 -4 16 13 21 21 13 21 -2 0 -10 -8 -17
-17z"/>
</g>
</svg>
